<?xml version="1.0" encoding="iso-8859-1"?><svg viewBox="0 0 512 512" xmlns="http://www.w3.org/2000/svg" xmlns:xlink="http://www.w3.org/1999/xlink"><style>:root>svg{display:none}:root>svg:target{display:block}</style><svg viewBox="0 0 512 512" style="enable-background:new 0 0 512 512" xml:space="preserve" id="instagram" xmlns="http://www.w3.org/2000/svg"><linearGradient id="aa" gradientUnits="userSpaceOnUse" x1="-46.004" y1="634.121" x2="-32.933" y2="647.192" gradientTransform="matrix(32 0 0 -32 1519 20757)"><stop offset="0" style="stop-color:#ffc107"/><stop offset=".507" style="stop-color:#f44336"/><stop offset=".99" style="stop-color:#9c27b0"/></linearGradient><path style="fill:url(#aa)" d="M352 0H160C71.648 0 0 71.648 0 160v192c0 88.352 71.648 160 160 160h192c88.352 0 160-71.648 160-160V160C512 71.648 440.352 0 352 0zm112 352c0 61.76-50.24 112-112 112H160c-61.76 0-112-50.24-112-112V160C48 98.24 98.24 48 160 48h192c61.76 0 112 50.24 112 112v192z"/><linearGradient id="ab" gradientUnits="userSpaceOnUse" x1="-42.297" y1="637.828" x2="-36.64" y2="643.485" gradientTransform="matrix(32 0 0 -32 1519 20757)"><stop offset="0" style="stop-color:#ffc107"/><stop offset=".507" style="stop-color:#f44336"/><stop offset=".99" style="stop-color:#9c27b0"/></linearGradient><path style="fill:url(#ab)" d="M256 128c-70.688 0-128 57.312-128 128s57.312 128 128 128 128-57.312 128-128-57.312-128-128-128zm0 208c-44.096 0-80-35.904-80-80 0-44.128 35.904-80 80-80s80 35.872 80 80c0 44.096-35.904 80-80 80z"/><linearGradient id="ac" gradientUnits="userSpaceOnUse" x1="-35.546" y1="644.579" x2="-34.792" y2="645.333" gradientTransform="matrix(32 0 0 -32 1519 20757)"><stop offset="0" style="stop-color:#ffc107"/><stop offset=".507" style="stop-color:#f44336"/><stop offset=".99" style="stop-color:#9c27b0"/></linearGradient><circle style="fill:url(#ac)" cx="393.6" cy="118.4" r="17.056"/></svg><svg version="1.1" id="location" x="0" y="0" viewBox="0 0 387.9 387.9" style="enable-background:new 0 0 387.9 387.9" xml:space="preserve" xmlns="http://www.w3.org/2000/svg"><style>.st0{fill:#258ace}.st1{fill:#fdb735}.st2{fill:#36c136}.st3{fill:#fd2475}.st4{fill:#895ead}.st5{fill:#d83632}.st6{fill:#30d4a2}.st7{fill:#46cccc}.st8{fill:#4cc3cb}.st9{fill:#60b0e2}.st10{fill:none;stroke:#000;stroke-width:14;stroke-miterlimit:10}</style><circle cx="194" cy="194" r="168.8"/><path d="M194.1 118.4c-41.2-.2-69.7 41.7-54.4 78.7 11 26.6 28.9 48.5 48 69.5 3.7 4.1 8.9 3.8 12.8-.2 3.4-3.5 6.5-7.2 9.6-10.9 14.5-17.5 27.8-35.6 37.4-56.4 17.4-38.5-12.7-80.9-53.4-80.7zm-.5 83.7c-14.5-.3-26-12.2-25.9-26.7.1-14.5 11.9-26.1 26.5-26.1 14.5.1 26.3 12 26.3 26.4-.1 14.7-12.3 26.7-26.9 26.4z" style="fill:#fff"/></svg><svg version="1.1" id="photoshop" x="0" y="0" viewBox="0 0 480 480" style="enable-background:new 0 0 480 480" xml:space="preserve" xmlns="http://www.w3.org/2000/svg"><style>.cst1{fill:#020f16}</style><path d="M8 59.6C8 31.1 31.1 8 59.6 8h360.9C448.9 8 472 31.1 472 59.6v360.9c0 28.5-23.1 51.6-51.6 51.6H59.6C31.1 472 8 448.9 8 420.4V59.6z" style="fill:#03a9f4"/><path class="cst1" d="M188.7 177.8h-25.8v57.1h25.4c7.1 0 12.5-2.3 16.4-6.9 3.9-4.6 5.8-11.3 5.8-20.1 0-9.2-2-16.4-5.9-21.8-4-5.5-9.3-8.2-15.9-8.3z"/><path class="cst1" d="M46.7 46.7v386.7h386.7V46.7H46.7zm185.1 203.5c-10.6 10.4-25.4 15.6-44.3 15.6h-24.7v64.4h-37V147h62.4c18.1 0 32.6 5.6 43.4 16.9 10.8 11.2 16.2 25.8 16.2 43.8s-5.3 32.1-16 42.5zm120.1 71.5c-9.1 7.4-21.2 11.1-36 11.1-10 0-18.8-1.9-26.4-5.9-7.6-3.9-13.6-9.3-17.9-16.3S265 296.1 265 288h33.9c.2 6.2 1.6 10.9 4.3 14 2.7 3.1 7.2 4.7 13.4 4.7 9.6 0 14.3-4.3 14.3-13 0-3-1.4-5.8-4.3-8.4-2.9-2.6-9.3-6-19.3-10.4-14.7-6-24.8-12.1-30.3-18.5s-8.2-14.3-8.2-23.8c0-11.9 4.3-21.8 12.9-29.5 8.6-7.8 20-11.6 34.2-11.6 14.9 0 26.9 3.9 35.9 11.6 9 7.7 13.5 18.1 13.5 31.1h-35.6c0-11.1-4.6-16.6-13.8-16.6-3.8 0-6.9 1.2-9.3 3.5s-3.6 5.6-3.6 9.8c0 3 1.3 5.7 4 8s9 5.6 19 9.9c14.5 5.4 24.8 11.4 30.8 17.9 6 6.6 9 15.1 9 25.6-.2 12.2-4.8 22-13.9 29.4z"/></svg></svg>